# xmcd
#
# Track frame offsets:
#	150
#	15027
#	32188
#	50465
#	66462
#	78974
#	99096
#	111996
#	127005
#	149277
#	161662
#	175786
#	191315
#	205238
#	221621
#	236937
#	248842
#	263688
#
# Disc length: 3673 seconds
#
# Revision: 1
# Processed by: cddbd v1.5.2PL0 Copyright (c) Steve Scherf et al.
# Submitted via: audiograbber 1.83.01
#
DISCID=f70e5712
DTITLE=Various Artist - Alles Gute
DYEAR=1999
DGENRE=Schlager
TTITLE0=Luhr, Walter - Der Geburtstagsclou
TTITLE1=Frank, Oliver - Da ist noch Platz in meinem Herzen
TTITLE2=Bach, Kristina - Memory
TTITLE3=Davis, Danny - Im Namen der Liebe
TTITLE4=Lorenz, Mark - Immer wieder denke ich an Dich
TTITLE5=Black, Roy - Ich kann Dich nur lieben
TTITLE6=Hill, Johnny - Mein Lied für Dich
TTITLE7=Peters, Angie - Jeder Herzschlag ist Sehnsucht
TTITLE8=Brink, Bernhard - Dich vergess' ich nie
TTITLE9=Orloff, Peter - Jeder hat Dich gern, doch nur einer hat Dich lieb
TTITLE10=Lucas, Denny - Wenn Du mich lieb hast
TTITLE11=Borg, Andy - Lass es mich ganz leise sagen
TTITLE12=Quinn, Freddy - Weißt Du, ich liebe Dich noch heut'
TTITLE13=Frank, Thomas - Harmonie (Die Melodie des Alltags)
TTITLE14=Hoffmann, Guido - Ich lass all' meine Träume bei Dir
TTITLE15=Rose, Paul and Gerry - Du bist die Sonne
TTITLE16=Raymond, Jacques - Schau in meine Augen
TTITLE17=Bonney, Graham and Norden, Ulla and Raymond, Jacques - Herzlichen Glückwun
TTITLE17=sch
EXTD=
EXTT0=
EXTT1=
EXTT2=
EXTT3=
EXTT4=
EXTT5=
EXTT6=
EXTT7=
EXTT8=
EXTT9=
EXTT10=
EXTT11=
EXTT12=
EXTT13=
EXTT14=
EXTT15=
EXTT16=
EXTT17=
PLAYORDER=
